#tb 0: 1/44100
#media_type 0: audio
#codec_id 0: pcm_s16le
#sample_rate 0: 44100
#channel_layout_name 0: stereo
0,          0,          0,     4096,    16384, 0x6ba24d90
0,       4096,       4096,     4096,    16384, 0x39c3221e
0,       8192,       8192,     4096,    16384, 0xd06156b7
0,      12288,      12288,     4096,    16384, 0x6fb946c0
0,      16384,      16384,     4096,    16384, 0xa445b736
0,      20480,      20480,     4096,    16384, 0xf5d2eb9e
0,      24576,      24576,     4096,    16384, 0x4ef78700
0,      28672,      28672,     4096,    16384, 0xe252a355
0,      32768,      32768,     4096,    16384, 0xe3dcfb2f
0,      36864,      36864,     4096,    16384, 0x885a6277
0,      40960,      40960,     4096,    16384, 0x630f2f59
0,      45056,      45056,     4096,    16384, 0x2d048e52
0,      49152,      49152,     4096,    16384, 0xa43fc10f
0,      53248,      53248,     4096,    16384, 0x80a22d49
0,      57344,      57344,     4096,    16384, 0x1b6e7dbc
0,      61440,      61440,     4096,    16384, 0x973da258
0,      65536,      65536,     4096,    16384, 0x45470212
0,      69632,      69632,     4096,    16384, 0xb6531766
0,      73728,      73728,     4096,    16384, 0x22ee6793
0,      77824,      77824,     4096,    16384, 0xb666eb70
